<?xml version="1.0" encoding="utf-8"?>
<!-- Generator: Adobe Illustrator 20.1.0, SVG Export Plug-In . SVG Version: 6.00 Build 0)  -->
<svg version="1.1" id="Layer_1" xmlns="http://www.w3.org/2000/svg" xmlns:xlink="http://www.w3.org/1999/xlink" x="0px" y="0px"
	 viewBox="0 0 180.1 62" style="enable-background:new 0 0 180.1 62;" xml:space="preserve">
<style type="text/css">
	.st0{fill:#AFB42B;}
	.st1{fill:#4527A0;}
</style>
<g>
	<path class="st0" d="M137.2,59.9c0.8,0,1.5-0.3,2.1-0.8c0.7-0.6,1-1.4,1-2.3v-52c0-0.9-0.4-1.8-1.1-2.4c-0.7-0.6-1.6-0.9-2.5-0.7
		c0,0-39.9,10.4-40.9,10.6c-1.7,0.4-1.4,2.8-1.4,2.8L134,8.4v44.9l-39.6-5c0,0-0.1,2.3,1.4,2.7c0.6,0.2,41,8.9,41,8.9
		C137,59.9,137.1,59.9,137.2,59.9z"/>
	<g>
		<g>
			<path class="st1" d="M14.2,23.9v15.9c0,0.8-0.3,1-1,1h-2.1c-0.8,0-1-0.3-1-1V26.6h-6v13.2c0,0.8-0.3,1-1,1H1c-0.8,0-1-0.3-1-1
				V23.9c0-0.8,0.3-1,1-1h12.2C14,22.8,14.2,23.1,14.2,23.9z"/>
			<path class="st1" d="M24.4,22.4c4.8,0,7.5,2.6,7.5,6.8v5.1c0,4.2-2.7,6.8-7.5,6.8c-4.8,0-7.5-2.6-7.5-6.8v-5.1
				C16.9,25.1,19.6,22.4,24.4,22.4z M24.4,26.2c-2.1,0-3.3,1-3.3,3v5.3c0,2,1.2,3,3.3,3c2.2,0,3.4-1,3.4-3v-5.3
				C27.7,27.2,26.5,26.2,24.4,26.2z"/>
			<path class="st1" d="M48.5,28.9c0,3.8-2.4,6.1-6.2,6.1h-3.7v4.8c0,0.8-0.3,1-1,1h-2.1c-0.8,0-1-0.3-1-1V23.9c0-0.8,0.3-1,1-1h6.8
				C46.1,22.8,48.5,25.1,48.5,28.9z M44.2,28.9c0-1.4-0.9-2.3-2.4-2.3h-3.3v4.6h3.3C43.4,31.2,44.2,30.4,44.2,28.9z"/>
			<path class="st1" d="M63.6,23.9v1.7c0,0.8-0.3,1-1,1h-4v13.2c0,0.8-0.3,1-1,1h-2.1c-0.8,0-1-0.3-1-1V26.6h-4c-0.8,0-1-0.3-1-1
				v-1.7c0-0.8,0.3-1,1-1h12C63.3,22.8,63.6,23.1,63.6,23.9z"/>
			<path class="st1" d="M79.5,28.9c0,3.8-2.4,6.1-6.2,6.1h-3.7v4.8c0,0.8-0.3,1-1,1h-2.1c-0.8,0-1-0.3-1-1V23.9c0-0.8,0.3-1,1-1h6.8
				C77.1,22.8,79.5,25.1,79.5,28.9z M75.2,28.9c0-1.4-0.9-2.3-2.4-2.3h-3.3v4.6h3.3C74.3,31.2,75.2,30.4,75.2,28.9z"/>
			<path class="st1" d="M94,23.9v1.7c0,0.8-0.3,1-1,1h-7.1v3.3h5.8c0.8,0,1,0.3,1,1v1.7c0,0.8-0.3,1-1,1h-5.8v3.5h7.4
				c0.8,0,1,0.3,1,1v1.7c0,0.8-0.3,1-1,1H82.7c-0.8,0-1-0.3-1-1V23.9c0-0.8,0.3-1,1-1h10.2C93.7,22.8,94,23.1,94,23.9z"/>
			<path class="st1" d="M109.4,23.9v1.7c0,0.8-0.3,1-1,1h-4v13.2c0,0.8-0.3,1-1,1h-2.1c-0.8,0-1-0.3-1-1V26.6h-4c-0.8,0-1-0.3-1-1
				v-1.7c0-0.8,0.3-1,1-1h12C109.1,22.8,109.4,23.1,109.4,23.9z"/>
			<path class="st1" d="M126,23.9v15.9c0,0.8-0.3,1-1,1h-2.1c-0.8,0-1-0.3-1-1V34c0-2.9,0.2-3.7,0.8-6.1h-0.2c-0.8,2.2-1.1,3-2.4,5
				l-4.6,7.4c-0.2,0.4-0.5,0.5-1,0.5h-2.2c-0.8,0-1-0.3-1-1V23.9c0-0.8,0.3-1,1-1h2.1c0.8,0,1,0.3,1,1v5.8c0,2.9-0.2,3.7-0.8,6.1
				h0.2c0.8-2.2,1.2-3.1,2.5-5.2l4.6-7.3c0.2-0.3,0.5-0.5,1-0.5h2.2C125.7,22.8,126,23.1,126,23.9z"/>
		</g>
	</g>
	<g>
		<g>
			<path class="st1" d="M154.9,37.5c2.2,0,3.2-1,3.2-2.9V23.9c0-0.8,0.3-1,1-1h2.1c0.8,0,1,0.3,1,1v10.6c0,4.1-2.5,6.7-7.4,6.7
				c-4.8,0-7.3-2.6-7.3-6.7V23.9c0-0.8,0.3-1,1-1h2.1c0.8,0,1,0.3,1,1v10.7C151.7,36.4,152.7,37.5,154.9,37.5z"/>
			<path class="st1" d="M179.4,40.8h-1.9c-1.3,0-1.6-0.2-1.9-0.9l-0.8-2.4h-6.3l-0.8,2.4c-0.3,0.7-0.6,0.9-1.9,0.9h-1.8
				c-0.8,0-0.9-0.3-0.7-1l6.1-16.1c0.3-0.7,0.6-0.9,1.3-0.9h2c0.7,0,1,0.2,1.3,0.8l6.1,16.2C180.3,40.5,180.1,40.8,179.4,40.8z
				 M171.8,26.6h-0.3c0,0,0,1.8-0.6,3.6l-1.3,4h4.1l-1.3-3.9C171.8,28.4,171.8,26.6,171.8,26.6z"/>
		</g>
	</g>
	<rect x="94.4" y="14.4" class="st0" width="1.9" height="4"/>
	<rect x="94.5" y="45.3" class="st0" width="1.9" height="3.3"/>
</g>
</svg>
