<?xml version="1.0" encoding="utf-8"?>
<!-- Generator: Adobe Illustrator 22.0.1, SVG Export Plug-In . SVG Version: 6.00 Build 0)  -->
<svg version="1.1" id="Layer_1" xmlns="http://www.w3.org/2000/svg" xmlns:xlink="http://www.w3.org/1999/xlink" x="0px" y="0px"
	 viewBox="0 0 258.8 85.5" style="enable-background:new 0 0 258.8 85.5;" xml:space="preserve">
<style type="text/css">
	.st0{fill:#AFB42B;}
	.st1{fill:#4527A0;}
</style>
<g>
	<path class="st0" d="M196.7,83.9c1.1,0,2.2-0.4,3-1.2c0.9-0.8,1.5-2.1,1.5-3.3V5.1c0-1.3-0.6-2.5-1.5-3.4c-1-0.9-2.3-1.2-3.6-1.1
		c0,0-57.1,14.8-58.5,15.2c-2.4,0.6-2,4-2,4l56.6-9.6v64.2l-56.6-7.2c0,0-0.2,3.3,2.1,3.9c0.9,0.3,58.6,12.7,58.6,12.7
		C196.4,83.9,196.6,83.9,196.7,83.9z"/>
	<g>
		<g>
			<path class="st1" d="M20.9,32.3v22.8c0,1.1-0.4,1.5-1.5,1.5h-2.9c-1.1,0-1.5-0.4-1.5-1.5V36.2H6.5v18.9c0,1.1-0.4,1.5-1.5,1.5
				H2.1c-1.1,0-1.5-0.4-1.5-1.5V32.3c0-1.1,0.4-1.5,1.5-1.5h17.4C20.6,30.8,20.9,31.2,20.9,32.3z"/>
			<path class="st1" d="M35.4,30.3c6.9,0,10.7,3.7,10.7,9.8v7.3c0,6-3.8,9.8-10.7,9.8s-10.7-3.7-10.7-9.8V40
				C24.7,34,28.6,30.3,35.4,30.3z M35.4,35.7c-3,0-4.8,1.4-4.8,4.2v7.5c0,2.8,1.7,4.2,4.8,4.2s4.8-1.4,4.8-4.2v-7.5
				C40.2,37.1,38.5,35.7,35.4,35.7z"/>
			<path class="st1" d="M70,39.5c0,5.4-3.4,8.7-8.9,8.7h-5.3v6.9c0,1.1-0.4,1.5-1.5,1.5h-2.9c-1.1,0-1.5-0.4-1.5-1.5V32.3
				c0-1.1,0.4-1.5,1.5-1.5h9.7C66.5,30.8,70,34.1,70,39.5z M63.8,39.5c0-2.1-1.2-3.3-3.4-3.3h-4.7v6.6h4.7
				C62.6,42.8,63.8,41.6,63.8,39.5z"/>
			<path class="st1" d="M91.5,32.3v2.4c0,1.1-0.4,1.5-1.5,1.5h-5.7v18.9c0,1.1-0.4,1.5-1.5,1.5h-2.9c-1.1,0-1.5-0.4-1.5-1.5V36.2
				h-5.7c-1.1,0-1.5-0.4-1.5-1.5v-2.4c0-1.1,0.4-1.5,1.5-1.5H90C91.1,30.8,91.5,31.2,91.5,32.3z"/>
			<path class="st1" d="M114.3,39.5c0,5.4-3.4,8.7-8.9,8.7h-5.3v6.9c0,1.1-0.4,1.5-1.5,1.5h-2.9c-1.1,0-1.5-0.4-1.5-1.5V32.3
				c0-1.1,0.4-1.5,1.5-1.5h9.7C110.8,30.8,114.3,34.1,114.3,39.5z M108.1,39.5c0-2.1-1.2-3.3-3.4-3.3H100v6.6h4.7
				C106.9,42.8,108.1,41.6,108.1,39.5z"/>
			<path class="st1" d="M134.9,32.3v2.4c0,1.1-0.4,1.5-1.5,1.5h-10.2v4.7h8.3c1.1,0,1.5,0.4,1.5,1.5v2.4c0,1.1-0.4,1.5-1.5,1.5h-8.3
				v4.9h10.5c1.1,0,1.5,0.4,1.5,1.5v2.4c0,1.1-0.4,1.5-1.5,1.5h-14.9c-1.1,0-1.5-0.4-1.5-1.5V32.3c0-1.1,0.4-1.5,1.5-1.5h14.6
				C134.5,30.8,134.9,31.2,134.9,32.3z"/>
			<path class="st1" d="M157,32.3v2.4c0,1.1-0.4,1.5-1.5,1.5h-5.7v18.9c0,1.1-0.4,1.5-1.5,1.5h-2.9c-1.1,0-1.5-0.4-1.5-1.5V36.2
				h-5.7c-1.1,0-1.5-0.4-1.5-1.5v-2.4c0-1.1,0.4-1.5,1.5-1.5h17.2C156.6,30.8,157,31.2,157,32.3z"/>
			<path class="st1" d="M180.7,32.3v22.8c0,1.1-0.4,1.5-1.5,1.5h-2.9c-1.1,0-1.5-0.4-1.5-1.5v-8.2c0-4.2,0.3-5.2,1.2-8.8h-0.2
				c-1.1,3.2-1.6,4.3-3.5,7.2l-6.6,10.6c-0.3,0.5-0.7,0.7-1.4,0.7h-3.1c-1.1,0-1.5-0.4-1.5-1.5V32.3c0-1.1,0.4-1.5,1.5-1.5h2.9
				c1.1,0,1.5,0.4,1.5,1.5v8.2c0,4.1-0.3,5.3-1.2,8.8h0.2c1.1-3.2,1.7-4.5,3.6-7.4l6.6-10.4c0.3-0.5,0.7-0.7,1.4-0.7h3.1
				C180.3,30.8,180.7,31.2,180.7,32.3z"/>
		</g>
	</g>
	<g>
		<g>
			<path class="st1" d="M222,51.8c3.1,0,4.6-1.5,4.6-4.1V32.3c0-1.1,0.4-1.5,1.5-1.5h2.9c1.1,0,1.5,0.4,1.5,1.5v15.2
				c0,5.8-3.6,9.6-10.5,9.6s-10.5-3.8-10.5-9.6V32.3c0-1.1,0.4-1.5,1.5-1.5h2.9c1.1,0,1.5,0.4,1.5,1.5v15.3
				C217.4,50.3,218.9,51.8,222,51.8z"/>
			<path class="st1" d="M257,56.6h-2.7c-1.8,0-2.4-0.3-2.7-1.3l-1.1-3.4h-9l-1.2,3.4c-0.4,1.1-0.8,1.3-2.6,1.3h-2.5
				c-1.1,0-1.3-0.5-1-1.5l8.7-23.1c0.4-1,0.8-1.2,1.8-1.2h2.8c1,0,1.5,0.2,1.8,1.2l8.7,23.1C258.3,56.1,258,56.6,257,56.6z
				 M246.1,36.2h-0.4c0,0,0,2.6-0.8,5.1L243,47h5.9l-1.9-5.6C246.2,38.8,246.1,36.2,246.1,36.2z"/>
		</g>
	</g>
	<rect x="135.6" y="18.8" class="st0" width="2.7" height="4.8"/>
	<rect x="135.6" y="63.9" class="st0" width="2.7" height="3.7"/>
</g>
</svg>
