<?xml version="1.0" encoding="utf-8"?>
<!-- Generator: Adobe Illustrator 20.1.0, SVG Export Plug-In . SVG Version: 6.00 Build 0)  -->
<svg version="1.1" id="Layer_1" xmlns="http://www.w3.org/2000/svg" xmlns:xlink="http://www.w3.org/1999/xlink" x="0px" y="0px"
	 viewBox="0 0 1159.7 139" style="enable-background:new 0 0 1159.7 139;" xml:space="preserve">
<style type="text/css">
	.st0{fill:#FFFFFF;}
</style>
<g>
	<path class="st0" d="M34.2,39.6H32c-1.8,0-2.3-0.3-2.7-1.3l-3.4-9.1H9.4L6,38.3c-0.4,1-0.9,1.3-2.7,1.3H1.3c-1.1,0-1.3-0.5-1-1.4
		L14.8,1.3c0.3-1,0.8-1.2,1.8-1.2h2.2c1.1,0,1.5,0.2,1.8,1.2l14.5,37C35.5,39.1,35.3,39.6,34.2,39.6z M17.8,5h-0.3
		c-0.1,0.1-0.1,2.6-0.9,5.2l-5.6,14.7h13.5l-5.6-14.6C17.9,7.6,17.8,5.1,17.8,5z"/>
	<path class="st0" d="M62.6,39.6h-2.2c-1.5,0-1.8-0.2-2.3-1.2l-3.8-8.1c-1.1-2.2-2.4-3.1-5-3.1h-5.1v11c0,1.1-0.3,1.4-1.4,1.4h-2.2
		c-1.1,0-1.4-0.3-1.4-1.4v-26c0-1,0.3-1.3,1.4-1.3h2.2c1.1,0,1.4,0.3,1.4,1.3v10.4h4.4h0.5l8.3-10.7c0.7-1,1.1-1,2.6-1h2.1
		c1.3,0,1.6,0.6,0.8,1.6l-8.9,11.1c1.9,0.7,3.3,2.2,4.5,4.6l4.9,9.9C64.1,39.2,63.9,39.6,62.6,39.6z"/>
	<path class="st0" d="M89.4,12.3v1.9c0,1-0.3,1.3-1.3,1.3H80v22.7c0,1-0.3,1.3-1.3,1.3h-2.3c-1,0-1.3-0.3-1.3-1.3V15.5h-8.1
		c-1,0-1.3-0.3-1.3-1.3v-1.9c0-1,0.3-1.3,1.3-1.3h21.2C89.1,10.9,89.4,11.3,89.4,12.3z"/>
	<path class="st0" d="M117.5,12.3V41c0,7.2-3.4,12-12,12c-6,0-9.3-2.2-11.3-5.7c-0.6-0.9-0.4-1.6,0.6-2.1l1.6-0.9
		c1.1-0.6,1.5-0.4,2.2,0.5c1.3,2.3,3.2,3.7,6.9,3.7c4.8,0,7.1-2.7,7.1-7.3v-3c-1.8,0.5-4.3,1.2-7.8,1.2c-7.8,0-11.3-4.1-11.3-11
		V12.3c0-1,0.3-1.3,1.3-1.3h2.3c0.9,0,1.3,0.3,1.3,1.3v16c0,4.4,2.2,6.6,7,6.6c3.1,0,5.5-0.7,7.1-1.2V12.3c0-1,0.3-1.3,1.3-1.3h2.3
		C117.1,10.9,117.5,11.3,117.5,12.3z"/>
	<path class="st0" d="M135.2,10.1c9,0,11.5,5,11.5,11.2v14.5c0,1.9-0.4,2.5-2,3.2c-2.1,0.9-5.2,1.4-9.6,1.4
		c-9.8,0-12.2-3.2-12.2-8.8c0-6.5,3.6-8.7,12.4-8.7c2.7,0,5.4,0.3,6.3,0.4v-2.1c0-3.9-1.4-6.6-6.6-6.6c-3.3,0-5.6,1.2-6.9,3.4
		c-0.6,0.9-0.8,1.1-1.8,0.7l-1.7-0.8c-0.9-0.4-1.2-0.9-0.7-1.9C125.8,12.3,129.5,10.1,135.2,10.1z M134.8,26.9
		c-5.2,0-6.8,1.5-6.8,4.7c0,2.9,1.2,4.7,6.7,4.7c3,0,4.9-0.2,6.2-0.7c0.7-0.3,0.8-0.4,0.8-1.2v-7C140.5,27.3,137.5,26.9,134.8,26.9z
		"/>
	<path class="st0" d="M176.2,12.3v26c0,1-0.3,1.3-1.3,1.3h-2.3c-1,0-1.3-0.3-1.3-1.3V15.5h-10.7v5.7c0,14.2-3.9,17.2-7.8,19
		c-0.8,0.3-1.2,0.1-1.6-0.7l-1.2-2.2c-0.3-0.7-0.2-1.2,0.5-1.6c2.4-1.2,5.3-2.7,5.3-14.9v-8.7c0-1,0.3-1.3,1.3-1.3h17.9
		C175.9,10.9,176.2,11.3,176.2,12.3z"/>
	<path class="st0" d="M207,29.6c0,6.3-3.9,10.1-10.2,10.1h-12.3c-1,0-1.3-0.3-1.3-1.3v-26c0-1,0.3-1.3,1.3-1.3h2.3
		c1,0,1.3,0.3,1.3,1.3v7.3h8.6C203.1,19.6,207,23.3,207,29.6z M201.8,29.6c0-3.4-2.1-5.5-5.6-5.5h-8v11.1h8
		C199.7,35.2,201.8,33,201.8,29.6z"/>
	<path class="st0" d="M236,12.3v26c0,1-0.3,1.3-1.3,1.3h-2.3c-1,0-1.3-0.3-1.3-1.3v-11H217v11c0,1-0.3,1.3-1.3,1.3h-2.3
		c-0.9,0-1.3-0.3-1.3-1.3v-26c0-1,0.3-1.3,1.3-1.3h2.3c1,0,1.3,0.3,1.3,1.3v10.4H231V12.3c0-1,0.3-1.3,1.3-1.3h2.3
		C235.7,10.9,236,11.3,236,12.3z"/>
	<path class="st0" d="M253.7,10.1c9,0,11.5,5,11.5,11.2v14.5c0,1.9-0.4,2.5-2,3.2c-2.1,0.9-5.2,1.4-9.6,1.4
		c-9.8,0-12.2-3.2-12.2-8.8c0-6.5,3.6-8.7,12.4-8.7c2.7,0,5.4,0.3,6.3,0.4v-2.1c0-3.9-1.4-6.6-6.6-6.6c-3.3,0-5.6,1.2-6.9,3.4
		c-0.6,0.9-0.8,1.1-1.8,0.7l-1.7-0.8c-0.9-0.4-1.2-0.9-0.7-1.9C244.3,12.3,248,10.1,253.7,10.1z M253.3,26.9c-5.2,0-6.8,1.5-6.8,4.7
		c0,2.9,1.2,4.7,6.7,4.7c3,0,4.9-0.2,6.2-0.7c0.7-0.3,0.8-0.4,0.8-1.2v-7C259.1,27.3,256,26.9,253.3,26.9z"/>
	<path class="st0" d="M295.8,10.1c6.7,0,10.3,3.1,11.7,7.5c0.4,1.1,0.1,1.6-0.9,1.9l-1.9,0.6c-1,0.4-1.5,0.1-1.9-0.9
		c-1-3.1-3.1-4.7-7.2-4.7c-4.8,0-7.2,2.4-7.2,6.6v8.4c0,4.1,2.4,6.6,7.2,6.6c4,0,6.3-1.7,7.3-4.8c0.4-1.1,0.8-1.2,1.9-0.9l1.9,0.6
		c1,0.4,1.3,0.8,0.9,1.9c-1.8,5-5.6,7.7-12.2,7.7c-8.2,0-12.1-4.3-12.1-11.2v-8C283.4,14.4,287.4,10.1,295.8,10.1z"/>
	<path class="st0" d="M324.6,10.1c8.6,0,12.6,5,12.6,11.5v3.2c0,1.2-0.5,1.9-2.1,1.9H317v2.7c0,4.2,2.6,6.7,7.5,6.7
		c3.9,0,6.3-1.5,7.7-3.8c0.7-0.9,1.2-1.1,2.2-0.5l1.5,0.8c1,0.5,1.1,1.2,0.5,2.2c-1.9,3.4-5.6,5.7-12,5.7c-8.7,0-12.3-4.8-12.3-11.6
		V22C312,14.5,316.3,10.1,324.6,10.1z M324.6,14.3c-5,0-7.6,2.7-7.6,7v1.6h15.2v-1.6C332.2,17,329.6,14.3,324.6,14.3z"/>
	<path class="st0" d="M354.2,10.1c6.7,0,10.3,3.1,11.7,7.5c0.4,1.1,0.1,1.6-0.9,1.9l-1.9,0.6c-1,0.4-1.5,0.1-1.9-0.9
		c-1-3.1-3.1-4.7-7.2-4.7c-4.8,0-7.2,2.4-7.2,6.6v8.4c0,4.1,2.4,6.6,7.2,6.6c4,0,6.3-1.7,7.3-4.8c0.4-1.1,0.8-1.2,1.9-0.9l1.9,0.6
		c1,0.4,1.3,0.8,0.9,1.9c-1.8,5-5.6,7.7-12.2,7.7c-8.2,0-12.1-4.3-12.1-11.2v-8C341.8,14.4,345.8,10.1,354.2,10.1z"/>
	<path class="st0" d="M377.5,5.1c0.1,1.7-1.2,3-3.1,3c-1.7,0-2.9-1.3-2.9-3c0-1.7,1.3-3.1,3.1-3.1C376.3,2.1,377.5,3.4,377.5,5.1z
		 M372,39.6V12.7h4.9v26.9H372z"/>
	<path class="st0" d="M406.9,12.3v26c0,1-0.3,1.3-1.3,1.3h-2.3c-1,0-1.3-0.3-1.3-1.3v-8.5h-7.5l-5.5,8.7c-0.6,1.1-1,1.2-2.4,1.2
		h-2.1c-1.6,0-1.7-0.5-1-1.6l6-9c-3.8-1.1-6.1-4.2-6.1-8.7c0-5.9,3.7-9.5,9.6-9.5h12.7C406.5,10.9,406.9,11.3,406.9,12.3z
		 M388.4,20.4c0,3,1.9,4.9,5.1,4.9h8.5v-9.9h-8.5C390.3,15.4,388.4,17.4,388.4,20.4z"/>
	<path class="st0" d="M419.6,15.2v0.4c0,2.1-0.7,2.8-2.8,2.8h-0.4c-2.1,0-2.8-0.7-2.8-2.8v-0.4c0-2.2,0.7-2.8,2.8-2.8h0.4
		C419,12.3,419.6,13,419.6,15.2z M419.6,36.7v0.4c0,2.1-0.7,2.8-2.8,2.8h-0.4c-2.1,0-2.8-0.6-2.8-2.8v-0.4c0-2.1,0.7-2.8,2.8-2.8
		h0.4C419,33.9,419.6,34.6,419.6,36.7z"/>
	<path class="st0" d="M41.1,75.7L19,122c-0.6,1.3-1,1.6-3,1.6h-3.6c-1.3,0-1.5-0.8-0.9-1.8l6.3-12.5L0.3,75.7
		c-0.6-1.1-0.4-1.8,0.9-1.8h3.2c2.2,0,2.8,0,3.6,1.6l13.4,26.2l12.5-26.2c0.7-1.6,1.2-1.6,3.3-1.6h3.1
		C41.5,73.9,41.5,74.7,41.1,75.7z"/>
	<path class="st0" d="M71.5,123.6h-2.7c-1.9,0-2.2-0.2-2.9-1.5L61,111.9c-1.3-2.7-3-3.9-6.3-3.9h-6.4v13.8c0,1.3-0.4,1.8-1.8,1.8
		h-2.8c-1.3,0-1.8-0.4-1.8-1.8V89.2c0-1.3,0.4-1.7,1.8-1.7h2.8c1.3,0,1.8,0.4,1.8,1.7v13.1h5.5h0.6L65,88.8c0.9-1.3,1.4-1.3,3.3-1.3
		h2.7c1.7,0,2,0.7,1,2l-11.2,14c2.5,0.9,4.1,2.8,5.6,5.7l6.2,12.5C73.3,123.1,73.1,123.6,71.5,123.6z"/>
	<path class="st0" d="M94.1,86.5c10,0,14.6,5.1,14.6,14.1v9.9c0,9.1-4.8,14.3-14.9,14.3c-4,0-7.3-1.3-9.1-1.9v14.6
		c0,1.3-0.4,1.7-1.7,1.7h-2.9c-1.2,0-1.6-0.4-1.6-1.7V92.5c0-2.3,0.5-3.1,2.7-4C83.9,87.4,88,86.5,94.1,86.5z M93.2,92.2
		c-3.1,0-5.5,0.5-7.4,1.1c-0.9,0.4-1,0.6-1,1.5v22.4c1.6,0.6,4.9,1.8,8.6,1.8c6.3,0,9.1-2.9,9.1-8.8v-9.5
		C102.4,95.1,99.3,92.2,93.2,92.2z"/>
	<path class="st0" d="M129.8,86.5c11.3,0,14.5,6.2,14.5,14.1v18.3c0,2.5-0.6,3.2-2.5,4c-2.6,1.1-6.6,1.8-12,1.8
		c-12.3,0-15.3-4-15.3-11.1c0-8.2,4.5-11,15.6-11c3.4,0,6.8,0.3,8,0.5v-2.7c0-5-1.8-8.3-8.3-8.3c-4.2,0-7,1.5-8.7,4.3
		c-0.8,1.1-1,1.3-2.3,0.8l-2.2-1c-1.2-0.5-1.5-1.1-0.9-2.4C118,89.2,122.6,86.5,129.8,86.5z M129.3,107.7c-6.6,0-8.6,1.9-8.6,5.9
		c0,3.6,1.5,5.9,8.5,5.9c3.8,0,6.2-0.3,7.8-0.8c0.8-0.3,1-0.6,1-1.5v-8.8C136.6,108.1,132.7,107.7,129.3,107.7z"/>
	<path class="st0" d="M146.2,80.2c0-2,1.6-3.6,3.6-3.6s3.4,1.5,3.4,3.6c0,1.9-1.4,3.6-3.4,3.6C147.7,83.7,146.2,82,146.2,80.2z
		 M153.2,123.6V89.7h6.2v33.9H153.2z M159.3,80.2c0-2,1.5-3.6,3.6-3.6c1.9,0,3.4,1.5,3.4,3.6c0,1.9-1.3,3.6-3.4,3.6
		C160.7,83.7,159.3,82,159.3,80.2z"/>
	<path class="st0" d="M199.1,89.2v32.8c0,1.3-0.4,1.7-1.7,1.7h-2.9c-1.3,0-1.7-0.4-1.7-1.7v-13.9h-17.7v13.9c0,1.3-0.4,1.7-1.7,1.7
		h-2.9c-1.2,0-1.7-0.4-1.7-1.7V89.2c0-1.3,0.4-1.7,1.7-1.7h2.9c1.3,0,1.7,0.4,1.7,1.7v13.1h17.7V89.2c0-1.3,0.4-1.7,1.7-1.7h2.9
		C198.7,87.5,199.1,87.9,199.1,89.2z"/>
	<path class="st0" d="M242.6,119.6v12.1c0,1.3-0.4,1.7-1.7,1.7h-2.7c-1.3,0-1.7-0.4-1.7-1.7v-8.1h-27.1c-1.3,0-1.7-0.4-1.7-1.7V89.2
		c0-1.3,0.5-1.7,1.7-1.7h2.9c1.3,0,1.7,0.4,1.7,1.7v28.6h17V89.2c0-1.3,0.4-1.7,1.7-1.7h2.9c1.3,0,1.7,0.4,1.7,1.7v28.6h3.6
		C242.2,117.8,242.6,118.2,242.6,119.6z"/>
	<path class="st0" d="M255.8,80.2c0.1,2.1-1.5,3.8-3.9,3.8c-2.2,0-3.7-1.7-3.7-3.8c0-2.2,1.6-3.9,3.9-3.9
		C254.3,76.4,255.8,78.1,255.8,80.2z M248.9,123.6V89.7h6.2v33.9H248.9z"/>
	<path class="st0" d="M312.7,104v1.8c0,1-0.4,1.4-1.4,1.4h-28.9c-1,0-1.3-0.3-1.3-1.4V104c0-1.1,0.3-1.4,1.3-1.4h28.9
		C312.3,102.6,312.7,103,312.7,104z"/>
	<path class="st0" d="M375.8,75.7v46.1c0,1.3-0.5,1.8-1.9,1.8h-3.1c-1.3,0-1.8-0.5-1.8-1.8V80.2h-23.5v41.6c0,1.3-0.5,1.8-1.9,1.8
		h-3.1c-1.3,0-1.8-0.5-1.8-1.8V75.7c0-1.3,0.5-1.8,1.8-1.8h33.4C375.3,73.9,375.8,74.4,375.8,75.7z"/>
	<path class="st0" d="M400.6,86.5c10,0,14.6,5.1,14.6,14.1v9.9c0,9.1-4.8,14.3-14.9,14.3c-4,0-7.3-1.3-9.1-1.9v14.6
		c0,1.3-0.4,1.7-1.7,1.7h-2.9c-1.2,0-1.6-0.4-1.6-1.7V92.5c0-2.3,0.5-3.1,2.7-4C390.5,87.4,394.5,86.5,400.6,86.5z M399.7,92.2
		c-3.1,0-5.5,0.5-7.4,1.1c-0.9,0.4-1.1,0.6-1.1,1.5v22.4c1.6,0.6,4.9,1.8,8.6,1.8c6.3,0,9.1-2.9,9.1-8.8v-9.5
		C408.9,95.1,405.9,92.2,399.7,92.2z"/>
	<path class="st0" d="M436.3,86.5c11.3,0,14.5,6.2,14.5,14.1v18.3c0,2.5-0.6,3.2-2.5,4c-2.6,1.1-6.6,1.8-12,1.8
		c-12.3,0-15.3-4-15.3-11.1c0-8.2,4.5-11,15.6-11c3.4,0,6.8,0.3,8,0.5v-2.7c0-5-1.8-8.3-8.3-8.3c-4.2,0-7,1.5-8.7,4.3
		c-0.8,1.1-1,1.3-2.3,0.8l-2.2-1c-1.2-0.5-1.5-1.1-0.9-2.4C424.5,89.2,429.2,86.5,436.3,86.5z M435.8,107.7c-6.6,0-8.6,1.9-8.6,5.9
		c0,3.6,1.5,5.9,8.5,5.9c3.8,0,6.2-0.3,7.8-0.8c0.8-0.3,1.1-0.6,1.1-1.5v-8.8C443.1,108.1,439.3,107.7,435.8,107.7z"/>
	<path class="st0" d="M484.1,104.8c3.4,1.6,5.1,4.6,5.1,8.8c0,6.2-4.1,10.1-10.6,10.1h-17.9c-1.3,0-1.8-0.4-1.8-1.7V89.2
		c0-1.3,0.5-1.7,1.8-1.7h16.9c6.6,0,10.4,3.8,10.4,9.7C488,100.5,486.8,103.2,484.1,104.8z M481.7,97.7c0-3-1.8-4.8-5.1-4.8h-11.3
		v9.7h11.6C479.8,102.5,481.7,100.7,481.7,97.7z M482.7,112.9c0-3.3-2-5.3-5.5-5.3h-12v10.6h12.1
		C480.8,118.3,482.7,116.3,482.7,112.9z"/>
	<path class="st0" d="M510.9,86.5c10.8,0,15.8,6.2,15.8,14.5v4.1c0,1.5-0.6,2.5-2.6,2.5h-22.8v3.4c0,5.3,3.2,8.4,9.4,8.4
		c5,0,8-1.9,9.7-4.8c0.8-1.2,1.5-1.3,2.7-0.6l1.9,1c1.3,0.6,1.4,1.5,0.6,2.7c-2.5,4.3-7,7.2-15.1,7.2c-10.9,0-15.5-6-15.5-14.6v-8.7
		C495,92,500.5,86.5,510.9,86.5z M510.9,91.8c-6.3,0-9.6,3.4-9.6,8.8v2h19.2v-2C520.5,95.1,517.2,91.8,510.9,91.8z"/>
	<path class="st0" d="M570.1,119.6v12.1c0,1.3-0.4,1.7-1.7,1.7h-2.7c-1.3,0-1.7-0.4-1.7-1.7v-8.1h-27.7v8.1c0,1.3-0.5,1.7-1.8,1.7
		h-2.7c-1.2,0-1.6-0.4-1.6-1.7v-12.1c0-1.3,0.4-1.8,1.6-1.8h1.9c2.3-1.9,4.6-5.2,4.6-18.1V89.2c0-1.3,0.4-1.7,1.7-1.7h23.1
		c1.3,0,1.7,0.4,1.7,1.7v28.6h3.6C569.7,117.8,570.1,118.2,570.1,119.6z M541,117.8h17.6V93.3h-14.1v6.8
		C544.5,110.3,543,114.9,541,117.8z"/>
	<path class="st0" d="M605.9,89.2v32.8c0,1.3-0.4,1.7-1.7,1.7h-2.9c-1.3,0-1.7-0.4-1.7-1.7v-13.9h-17.7v13.9c0,1.3-0.4,1.7-1.7,1.7
		h-2.9c-1.2,0-1.7-0.4-1.7-1.7V89.2c0-1.3,0.4-1.7,1.7-1.7h2.9c1.3,0,1.7,0.4,1.7,1.7v13.1h17.7V89.2c0-1.3,0.4-1.7,1.7-1.7h2.9
		C605.5,87.5,605.9,87.9,605.9,89.2z"/>
	<path class="st0" d="M620.9,89.2v17.1c0,3.5-0.3,6-1.1,9.1h0.2c1.3-2.9,2.4-4.4,3.8-6.3L639,88.3c0.4-0.6,0.8-0.8,1.6-0.8h2.9
		c1.3,0,1.7,0.4,1.7,1.7v32.8c0,1.3-0.4,1.7-1.7,1.7h-2.9c-1.3,0-1.7-0.4-1.7-1.7v-16.8c0-3.9,0.6-6.6,1.1-9.3h-0.2
		c-1.2,2.5-2.3,4.2-3.9,6.4l-15.1,20.5c-0.5,0.6-0.9,0.8-1.7,0.8h-2.9c-1.2,0-1.7-0.4-1.7-1.7V89.2c0-1.3,0.4-1.7,1.7-1.7h2.9
		C620.5,87.5,620.9,87.9,620.9,89.2z"/>
	<path class="st0" d="M683.3,123.6h-2.7c-1.9,0-2.2-0.2-2.9-1.5l-4.8-10.2c-1.3-2.7-3-3.9-6.3-3.9h-6.4v13.8c0,1.3-0.4,1.8-1.8,1.8
		h-2.8c-1.3,0-1.8-0.4-1.8-1.8V89.2c0-1.3,0.4-1.7,1.8-1.7h2.8c1.3,0,1.8,0.4,1.8,1.7v13.1h5.5h0.6l10.4-13.5
		c0.9-1.3,1.4-1.3,3.3-1.3h2.7c1.7,0,2,0.7,1,2l-11.2,14c2.5,0.9,4.1,2.8,5.6,5.7l6.2,12.5C685.2,123.1,685,123.6,683.3,123.6z"/>
	<path class="st0" d="M696.7,89.2v17.1c0,3.5-0.3,6-1.1,9.1h0.2c1.3-2.9,2.4-4.4,3.8-6.3l15.3-20.7c0.4-0.6,0.8-0.8,1.6-0.8h2.9
		c1.3,0,1.7,0.4,1.7,1.7v32.8c0,1.3-0.4,1.7-1.7,1.7h-2.9c-1.3,0-1.7-0.4-1.7-1.7v-16.8c0-3.9,0.6-6.6,1.1-9.3h-0.2
		c-1.2,2.5-2.3,4.2-3.9,6.4l-15.1,20.5c-0.5,0.6-0.9,0.8-1.7,0.8h-2.9c-1.2,0-1.7-0.4-1.7-1.7V89.2c0-1.3,0.4-1.7,1.7-1.7h2.9
		C696.3,87.5,696.7,87.9,696.7,89.2z"/>
	<path class="st0" d="M776,89.2v32.8c0,1.3-0.4,1.7-1.7,1.7h-2.9c-1.3,0-1.7-0.4-1.7-1.7v-13.9H752v13.9c0,1.3-0.4,1.7-1.7,1.7h-2.9
		c-1.2,0-1.7-0.4-1.7-1.7V89.2c0-1.3,0.4-1.7,1.7-1.7h2.9c1.3,0,1.7,0.4,1.7,1.7v13.1h17.7V89.2c0-1.3,0.4-1.7,1.7-1.7h2.9
		C775.6,87.5,776,87.9,776,89.2z"/>
	<path class="st0" d="M798.2,86.5c11.3,0,14.5,6.2,14.5,14.1v18.3c0,2.5-0.6,3.2-2.5,4c-2.6,1.1-6.6,1.8-12,1.8
		c-12.3,0-15.3-4-15.3-11.1c0-8.2,4.5-11,15.6-11c3.4,0,6.8,0.3,8,0.5v-2.7c0-5-1.8-8.3-8.3-8.3c-4.2,0-7,1.5-8.7,4.3
		c-0.8,1.1-1,1.3-2.3,0.8l-2.2-1c-1.2-0.5-1.5-1.1-0.9-2.4C786.4,89.2,791.1,86.5,798.2,86.5z M797.7,107.7c-6.6,0-8.6,1.9-8.6,5.9
		c0,3.6,1.5,5.9,8.5,5.9c3.8,0,6.2-0.3,7.8-0.8c0.8-0.3,1.1-0.6,1.1-1.5v-8.8C805,108.1,801.1,107.7,797.7,107.7z"/>
	<path class="st0" d="M836.4,86.5c10,0,14.6,5.1,14.6,14.1v9.9c0,9.1-4.8,14.3-14.9,14.3c-4,0-7.3-1.3-9.1-1.9v14.6
		c0,1.3-0.4,1.7-1.7,1.7h-2.9c-1.2,0-1.6-0.4-1.6-1.7V92.5c0-2.3,0.5-3.1,2.7-4C826.2,87.4,830.3,86.5,836.4,86.5z M835.4,92.2
		c-3.1,0-5.5,0.5-7.4,1.1c-0.9,0.4-1,0.6-1,1.5v22.4c1.6,0.6,4.9,1.8,8.6,1.8c6.3,0,9.1-2.9,9.1-8.8v-9.5
		C844.7,95.1,841.6,92.2,835.4,92.2z"/>
	<path class="st0" d="M873.1,86.5c10.1,0,15.8,5.1,15.8,13.4v11.4c0,8.3-5.7,13.4-15.8,13.4c-9.9,0-15.7-5.1-15.7-13.4V99.9
		C857.4,91.6,863.2,86.5,873.1,86.5z M873.1,92.1c-5.9,0-9.5,2.9-9.5,7.7v11.5c0,4.8,3.6,7.7,9.5,7.7c6,0,9.5-2.9,9.5-7.7V99.8
		C882.6,95,879.1,92.1,873.1,92.1z"/>
	<path class="st0" d="M932.6,119.6v12.1c0,1.3-0.4,1.7-1.7,1.7h-2.7c-1.3,0-1.7-0.4-1.7-1.7v-8.1h-27.7v8.1c0,1.3-0.5,1.7-1.8,1.7
		h-2.7c-1.2,0-1.6-0.4-1.6-1.7v-12.1c0-1.3,0.4-1.8,1.6-1.8h1.9c2.3-1.9,4.6-5.2,4.6-18.1V89.2c0-1.3,0.4-1.7,1.7-1.7h23.1
		c1.3,0,1.7,0.4,1.7,1.7v28.6h3.6C932.2,117.8,932.6,118.2,932.6,119.6z M903.5,117.8h17.6V93.3H907v6.8
		C907,110.3,905.5,114.9,903.5,117.8z"/>
	<path class="st0" d="M945.8,80.2c0.1,2.1-1.5,3.8-3.9,3.8c-2.2,0-3.7-1.7-3.7-3.8c0-2.2,1.6-3.9,3.9-3.9
		C944.3,76.4,945.8,78.1,945.8,80.2z M938.9,123.6V89.7h6.2v33.9H938.9z"/>
	<path class="st0" d="M979.7,104.8c3.4,1.6,5.1,4.6,5.1,8.8c0,6.2-4.1,10.1-10.6,10.1h-17.9c-1.3,0-1.8-0.4-1.8-1.7V89.2
		c0-1.3,0.5-1.7,1.8-1.7h16.9c6.6,0,10.4,3.8,10.4,9.7C983.6,100.5,982.4,103.2,979.7,104.8z M977.3,97.7c0-3-1.8-4.8-5.1-4.8h-11.3
		v9.7h11.6C975.4,102.5,977.3,100.7,977.3,97.7z M978.3,112.9c0-3.3-2-5.3-5.5-5.3h-12v10.6h12.1
		C976.4,118.3,978.3,116.3,978.3,112.9z"/>
	<path class="st0" d="M1022.3,86.5c8.5,0,13,3.9,14.8,9.4c0.5,1.3,0.1,2-1.1,2.4l-2.5,0.8c-1.3,0.6-1.9,0.1-2.4-1.1
		c-1.3-3.9-3.9-5.9-9.1-5.9c-6.1,0-9.1,3.1-9.1,8.3v10.6c0,5.2,3.1,8.3,9.1,8.3c5,0,7.9-2.2,9.2-6.1c0.6-1.3,1-1.5,2.4-1.1l2.5,0.7
		c1.3,0.5,1.7,1,1.2,2.4c-2.2,6.2-7,9.7-15.3,9.7c-10.4,0-15.3-5.4-15.3-14.1v-10C1006.7,91.8,1011.7,86.5,1022.3,86.5z"/>
	<path class="st0" d="M1069.2,104.8c3.4,1.6,5.1,4.6,5.1,8.8c0,6.2-4.1,10.1-10.6,10.1h-17.9c-1.3,0-1.8-0.4-1.8-1.7V89.2
		c0-1.3,0.5-1.7,1.8-1.7h16.9c6.6,0,10.4,3.8,10.4,9.7C1073,100.5,1071.8,103.2,1069.2,104.8z M1066.7,97.7c0-3-1.8-4.8-5.1-4.8
		h-11.3v9.7h11.6C1064.8,102.5,1066.7,100.7,1066.7,97.7z M1067.8,112.9c0-3.3-2-5.3-5.5-5.3h-12v10.6h12.1
		C1065.8,118.3,1067.8,116.3,1067.8,112.9z"/>
	<path class="st0" d="M1089,80.2c0.1,2.1-1.5,3.8-3.9,3.8c-2.2,0-3.7-1.7-3.7-3.8c0-2.2,1.6-3.9,3.9-3.9
		C1087.5,76.4,1089,78.1,1089,80.2z M1082.1,123.6V89.7h6.2v33.9H1082.1z"/>
	<path class="st0" d="M1124.4,89.2v2.5c0,1.3-0.4,1.7-1.7,1.7h-10.2v28.6c0,1.3-0.3,1.7-1.6,1.7h-2.9c-1.3,0-1.7-0.4-1.7-1.7V93.3
		h-10.2c-1.3,0-1.7-0.4-1.7-1.7v-2.5c0-1.3,0.4-1.7,1.7-1.7h26.7C1124,87.5,1124.4,87.9,1124.4,89.2z"/>
	<path class="st0" d="M1159.7,89.2v36.2c0,9.1-4.3,15.1-15.1,15.1c-7.5,0-11.8-2.8-14.2-7.1c-0.8-1.2-0.6-2,0.7-2.7l2-1.1
		c1.3-0.7,1.9-0.5,2.7,0.6c1.7,2.9,4.1,4.7,8.7,4.7c6.1,0,9-3.4,9-9.2v-3.8c-2.3,0.6-5.4,1.5-9.8,1.5c-9.8,0-14.2-5.1-14.2-13.9
		V89.2c0-1.3,0.4-1.7,1.7-1.7h2.9c1.2,0,1.6,0.4,1.6,1.7v20.1c0,5.5,2.8,8.3,8.8,8.3c3.9,0,6.9-0.8,9-1.5v-27c0-1.3,0.4-1.7,1.7-1.7
		h2.9C1159.3,87.5,1159.7,87.9,1159.7,89.2z"/>
</g>
</svg>
